<svg width="4" height="4" viewBox="0 0 4 4" fill="none" xmlns="http://www.w3.org/2000/svg">
<g clip-path="url(#clip0_176_25)">
<path d="M2 0C0.895429 0 0 0.895429 0 2C0 3.10457 0.895429 4 2 4C3.10457 4 4 3.10457 4 2C4 0.895429 3.10457 0 2 0ZM2.19048 2.10232V2.78241H1.80952V2.10232C1.65938 2.03098 1.55556 1.87799 1.55556 1.70071C1.55556 1.45525 1.75454 1.25627 2 1.25627C2.24546 1.25627 2.44444 1.45525 2.44444 1.70071C2.44444 1.87799 2.34062 2.031 2.19048 2.10232Z" fill="url(#paint0_linear_176_25)"/>
</g>
<defs>
<linearGradient id="paint0_linear_176_25" x1="2" y1="0" x2="2" y2="4" gradientUnits="userSpaceOnUse">
<stop stop-color="#91C2F8"/>
<stop offset="1" stop-color="#47C8FE"/>
</linearGradient>
<clipPath id="clip0_176_25">
<rect width="4" height="4" fill="white"/>
</clipPath>
</defs>
</svg>
