<svg width="1920" height="1080" viewBox="0 0 1920 1080" fill="none" xmlns="http://www.w3.org/2000/svg">
<g clip-path="url(#clip0_182_5698)">
<rect width="1920" height="1080" fill="white"/>
<path d="M1920 -93.1582H0.00244141V1187.16H1920V-93.1582Z" fill="url(#paint0_linear_182_5698)"/>
<path d="M930.431 247.209V146.993H763.261V247.209H746.521V1187.16H947.171V247.209H930.431Z" fill="#B3D3F4"/>
<path d="M1395.36 247.209V203.245H1248.67V247.209H1221.69V1187.16H1422.34V247.209H1395.36Z" fill="#B3D3F4"/>
<path d="M493.099 212.704H292.452V1187.16H493.099V212.704Z" fill="#B3D3F4"/>
<path d="M1626.15 140.136H1447.27V1187.16H1626.15V140.136Z" fill="#B3D3F4"/>
<path d="M1190.13 1187.16H989.482V81.1738L1190.13 158.887V1187.16Z" fill="#B3D3F4"/>
<path d="M238.812 375.908H38.1646V1187.16H238.812V375.908Z" fill="#B3D3F4"/>
<path d="M1837.3 317.133H1661.48V1187.16H1837.3V317.133Z" fill="#B3D3F4"/>
<path d="M711.169 1177.19H510.522V341.944L711.169 294.823V1177.19Z" fill="#B3D3F4"/>
<path d="M1262.22 38.9929C1260.08 38.9929 1257.95 39.0595 1255.84 39.1747C1253.7 -8.12275 1214.69 -45.8153 1166.88 -45.8153C1139.54 -45.8153 1115.1 -33.4858 1098.76 -14.0993C1077.75 -43.5875 1043.31 -62.8384 1004.35 -62.8384C971.695 -62.8384 942.22 -49.3106 921.156 -27.5759C905.606 -40.3739 885.695 -48.061 863.989 -48.061C814.263 -48.061 773.954 -7.74121 773.954 41.9965C773.954 62.6224 780.901 81.6147 792.562 96.7967C786.454 110.844 783.047 126.339 783.047 142.635C783.047 206.174 834.544 257.684 898.067 257.684C931.69 257.684 961.937 243.25 982.967 220.245C998.662 258.688 1036.39 285.784 1080.47 285.784C1120.56 285.784 1155.41 263.379 1173.2 230.408C1194.55 255.745 1226.5 271.86 1262.22 271.86C1326.51 271.86 1378.62 219.73 1378.62 155.427C1378.62 91.1249 1326.51 38.9929 1262.22 38.9929Z" fill="url(#paint1_linear_182_5698)"/>
<path d="M1819.91 99.7365C1800.37 99.7365 1781.97 104.543 1765.78 112.998C1752.39 75.4156 1716.52 48.5059 1674.36 48.5059C1621.83 48.5059 1579.08 90.2544 1577.4 142.381C1571.23 140.929 1564.82 140.136 1558.21 140.136C1512.14 140.136 1474.8 177.488 1474.8 223.566C1474.8 269.645 1512.14 306.997 1558.21 306.997C1565.29 306.997 1572.16 306.093 1578.73 304.431C1590.07 339.599 1623.05 365.046 1661.98 365.046C1678.49 365.046 1693.94 360.463 1707.12 352.504C1722.23 385.096 1755.2 407.712 1793.48 407.712C1846.04 407.712 1888.65 365.095 1888.65 312.523C1888.65 312.305 1888.63 312.09 1888.63 311.875C1901.21 302.749 1911.88 291.175 1920 277.87V155.971C1899.42 122.25 1862.29 99.7365 1819.91 99.7365Z" fill="url(#paint2_linear_182_5698)"/>
<path d="M436.515 137.128C441.789 124.355 444.715 110.367 444.715 95.689C444.715 35.6831 396.083 -12.9639 336.089 -12.9639C276.096 -12.9639 227.466 35.6805 227.466 95.6864C227.466 96.178 227.497 96.662 227.502 97.1511C209.889 88.3988 190.054 83.4517 169.052 83.4517C114.629 83.4517 67.9269 116.507 47.9103 163.638C31.04 164.685 14.9299 168.511 0 174.631V573.639C16.6067 584.189 36.2931 590.324 57.4233 590.324C113.203 590.324 159.027 547.736 164.201 493.297C203.179 489.138 234.375 458.956 240.087 420.452C248.005 422.423 256.284 423.486 264.814 423.486C292.874 423.486 318.284 412.153 336.734 393.821C355.555 403.408 376.852 408.829 399.421 408.829C475.832 408.829 537.773 346.872 537.773 270.442C537.776 206.872 494.906 153.349 436.515 137.128Z" fill="url(#paint3_linear_182_5698)"/>
<g opacity="0.65">
<path d="M1487.63 522.929C1482.69 522.929 1482.69 530.611 1487.63 530.611C1492.58 530.611 1492.59 522.929 1487.63 522.929Z" fill="white"/>
<path d="M1454.51 334.313C1449.57 334.313 1449.56 341.995 1454.51 341.995C1459.45 341.995 1459.46 334.313 1454.51 334.313Z" fill="white"/>
<path d="M1558.98 38.6504C1554.04 38.6504 1554.03 46.3323 1558.98 46.3323C1563.93 46.3323 1563.93 38.6504 1558.98 38.6504Z" fill="white"/>
<path d="M1788.32 -4.68066C1783.38 -4.68066 1783.37 3.00124 1788.32 3.00124C1793.26 3.00124 1793.27 -4.68066 1788.32 -4.68066Z" fill="white"/>
<path d="M1900.44 418.425C1895.5 418.425 1895.49 426.107 1900.44 426.107C1905.38 426.107 1905.39 418.425 1900.44 418.425Z" fill="white"/>
<path d="M1878.66 625.151C1878.48 624.5 1878.15 623.934 1877.68 623.456C1876.83 622.605 1875.98 621.755 1875.13 620.908C1874.78 620.534 1874.37 620.268 1873.89 620.114C1873.43 619.873 1872.94 619.763 1872.41 619.784C1871.88 619.763 1871.39 619.873 1870.93 620.114C1870.46 620.268 1870.04 620.534 1869.7 620.908L1869.09 621.684C1868.75 622.283 1868.57 622.928 1868.57 623.622C1868.62 623.963 1868.66 624.303 1868.71 624.644C1868.89 625.294 1869.22 625.86 1869.7 626.339L1872.24 628.887C1872.59 629.261 1873 629.527 1873.48 629.68C1873.94 629.921 1874.43 630.031 1874.96 630.011C1875.49 630.031 1875.98 629.921 1876.44 629.68C1876.92 629.524 1877.33 629.261 1877.68 628.887L1878.28 628.108C1878.63 627.509 1878.8 626.864 1878.8 626.17C1878.76 625.832 1878.71 625.491 1878.66 625.151Z" fill="white"/>
<path d="M1897.89 798.201C1892.95 798.201 1892.95 805.883 1897.89 805.883C1902.84 805.883 1902.84 798.201 1897.89 798.201Z" fill="white"/>
<path d="M1887.7 1014.85C1882.76 1014.85 1882.75 1022.53 1887.7 1022.53C1892.64 1022.53 1892.65 1014.85 1887.7 1014.85Z" fill="white"/>
<path d="M556.694 104.069C551.753 104.069 551.743 111.751 556.694 111.751C561.637 111.751 561.645 104.069 556.694 104.069Z" fill="white"/>
<path d="M716.381 34.4023C711.441 34.4023 711.43 42.0842 716.381 42.0842C721.325 42.0842 721.332 34.4023 716.381 34.4023Z" fill="white"/>
<path d="M594.068 290.983C589.127 290.983 589.117 298.665 594.068 298.665C599.011 298.665 599.019 290.983 594.068 290.983Z" fill="white"/>
<path d="M116.707 41.1982C111.767 41.1982 111.759 48.8801 116.707 48.8801C121.648 48.8801 121.656 41.1982 116.707 41.1982Z" fill="white"/>
<path d="M24.9726 617.233C20.0318 617.233 20.0216 624.915 24.9726 624.915C29.9134 624.915 29.9211 617.233 24.9726 617.233Z" fill="white"/>
<path d="M35.164 884.861C30.2232 884.861 30.213 892.543 35.164 892.543C40.1074 892.543 40.1151 884.861 35.164 884.861Z" fill="white"/>
</g>
</g>
<defs>
<linearGradient id="paint0_linear_182_5698" x1="960.001" y1="1187.16" x2="960.001" y2="-93.1582" gradientUnits="userSpaceOnUse">
<stop stop-color="white"/>
<stop offset="1" stop-color="#BBDFFF"/>
</linearGradient>
<linearGradient id="paint1_linear_182_5698" x1="1076.29" y1="285.783" x2="1076.29" y2="-62.8386" gradientUnits="userSpaceOnUse">
<stop stop-color="#BBDFFF" stop-opacity="0"/>
<stop offset="0.5225" stop-color="#E1F1FF" stop-opacity="0.5225"/>
<stop offset="1" stop-color="white"/>
</linearGradient>
<linearGradient id="paint2_linear_182_5698" x1="1697.4" y1="407.711" x2="1697.4" y2="48.5048" gradientUnits="userSpaceOnUse">
<stop stop-color="#BBDFFF" stop-opacity="0"/>
<stop offset="0.5225" stop-color="#E1F1FF" stop-opacity="0.5225"/>
<stop offset="1" stop-color="white"/>
</linearGradient>
<linearGradient id="paint3_linear_182_5698" x1="268.89" y1="590.325" x2="268.89" y2="-12.9652" gradientUnits="userSpaceOnUse">
<stop stop-color="#BBDFFF" stop-opacity="0"/>
<stop offset="0.5225" stop-color="#E1F1FF" stop-opacity="0.5225"/>
<stop offset="1" stop-color="white"/>
</linearGradient>
<clipPath id="clip0_182_5698">
<rect width="1920" height="1080" fill="white"/>
</clipPath>
</defs>
</svg>
